<?xml version="1.0" encoding="UTF-8" ?>
<svg version="1.1" width="128" height="128" xmlns="http://www.w3.org/2000/svg" shape-rendering="crispEdges">
<rect x="14" y="1" width="3" height="2" fill="#8E8F87" />
<rect x="17" y="1" width="2" height="1" fill="#7D7D73" />
<rect x="78" y="1" width="3" height="2" fill="#8E8F87" />
<rect x="81" y="1" width="2" height="1" fill="#7D7D73" />
<rect x="17" y="2" width="1" height="3" fill="#8E8F87" />
<rect x="18" y="2" width="2" height="1" fill="#7D7D73" />
<rect x="20" y="2" width="1" height="5" fill="#8E8F87" />
<rect x="46" y="2" width="3" height="2" fill="#8E8F87" />
<rect x="49" y="2" width="2" height="1" fill="#7D7D73" />
<rect x="81" y="2" width="1" height="3" fill="#8E8F87" />
<rect x="82" y="2" width="2" height="1" fill="#7D7D73" />
<rect x="84" y="2" width="1" height="5" fill="#8E8F87" />
<rect x="4" y="3" width="2" height="3" fill="#3F4548" />
<rect x="13" y="3" width="2" height="2" fill="#7D7D73" />
<rect x="15" y="3" width="2" height="1" fill="#8E8F87" />
<rect x="18" y="3" width="2" height="4" fill="#8E8F87" />
<rect x="21" y="3" width="1" height="4" fill="#8E8F87" />
<rect x="49" y="3" width="1" height="3" fill="#8E8F87" />
<rect x="50" y="3" width="2" height="1" fill="#7D7D73" />
<rect x="52" y="3" width="1" height="5" fill="#8E8F87" />
<rect x="68" y="3" width="2" height="3" fill="#3F4548" />
<rect x="77" y="3" width="2" height="2" fill="#7D7D73" />
<rect x="79" y="3" width="2" height="1" fill="#8E8F87" />
<rect x="82" y="3" width="2" height="4" fill="#8E8F87" />
<rect x="85" y="3" width="1" height="4" fill="#8E8F87" />
<rect x="3" y="4" width="1" height="1" fill="#3F4548" />
<rect x="6" y="4" width="1" height="7" fill="#3F4548" />
<rect x="7" y="4" width="1" height="1" fill="#CFD5D6" />
<rect x="15" y="4" width="1" height="2" fill="#7D7D73" />
<rect x="16" y="4" width="1" height="1" fill="#8E8F87" />
<rect x="22" y="4" width="1" height="3" fill="#8E8F87" />
<rect x="36" y="4" width="2" height="3" fill="#3F4548" />
<rect x="45" y="4" width="2" height="2" fill="#7D7D73" />
<rect x="47" y="4" width="2" height="1" fill="#8E8F87" />
<rect x="50" y="4" width="2" height="4" fill="#8E8F87" />
<rect x="53" y="4" width="1" height="4" fill="#8E8F87" />
<rect x="67" y="4" width="1" height="1" fill="#3F4548" />
<rect x="70" y="4" width="1" height="6" fill="#3F4548" />
<rect x="71" y="4" width="1" height="1" fill="#CFD5D6" />
<rect x="79" y="4" width="1" height="2" fill="#7D7D73" />
<rect x="80" y="4" width="1" height="1" fill="#8E8F87" />
<rect x="86" y="4" width="1" height="3" fill="#8E8F87" />
<rect x="3" y="5" width="1" height="4" fill="#16161B" />
<rect x="7" y="5" width="3" height="5" fill="#3F4548" />
<rect x="12" y="5" width="2" height="1" fill="#3F4548" />
<rect x="14" y="5" width="1" height="1" fill="#7D7D73" />
<rect x="16" y="5" width="2" height="1" fill="#7D7D73" />
<rect x="35" y="5" width="1" height="1" fill="#3F4548" />
<rect x="38" y="5" width="1" height="6" fill="#3F4548" />
<rect x="39" y="5" width="1" height="1" fill="#CFD5D6" />
<rect x="47" y="5" width="1" height="2" fill="#7D7D73" />
<rect x="48" y="5" width="1" height="1" fill="#8E8F87" />
<rect x="54" y="5" width="1" height="3" fill="#8E8F87" />
<rect x="67" y="5" width="1" height="4" fill="#16161B" />
<rect x="71" y="5" width="3" height="4" fill="#3F4548" />
<rect x="76" y="5" width="2" height="1" fill="#3F4548" />
<rect x="78" y="5" width="1" height="1" fill="#7D7D73" />
<rect x="80" y="5" width="2" height="1" fill="#7D7D73" />
<rect x="4" y="6" width="1" height="6" fill="#16161B" />
<rect x="5" y="6" width="1" height="1" fill="#3F4548" />
<rect x="10" y="6" width="1" height="2" fill="#8E8F87" />
<rect x="12" y="6" width="1" height="2" fill="#7D7D73" />
<rect x="13" y="6" width="5" height="1" fill="#3F4548" />
<rect x="24" y="6" width="2" height="3" fill="#8E8F87" />
<rect x="35" y="6" width="1" height="4" fill="#16161B" />
<rect x="39" y="6" width="3" height="4" fill="#3F4548" />
<rect x="44" y="6" width="2" height="1" fill="#3F4548" />
<rect x="46" y="6" width="1" height="1" fill="#7D7D73" />
<rect x="48" y="6" width="2" height="1" fill="#7D7D73" />
<rect x="68" y="6" width="1" height="5" fill="#16161B" />
<rect x="69" y="6" width="1" height="1" fill="#3F4548" />
<rect x="74" y="6" width="1" height="2" fill="#8E8F87" />
<rect x="76" y="6" width="1" height="2" fill="#7D7D73" />
<rect x="77" y="6" width="5" height="1" fill="#3F4548" />
<rect x="88" y="6" width="2" height="3" fill="#8E8F87" />
<rect x="5" y="7" width="1" height="6" fill="#16161B" />
<rect x="11" y="7" width="1" height="1" fill="#7D7D73" />
<rect x="13" y="7" width="2" height="2" fill="#7D7D73" />
<rect x="15" y="7" width="8" height="1" fill="#3F4548" />
<rect x="23" y="7" width="1" height="3" fill="#8E8F87" />
<rect x="36" y="7" width="1" height="5" fill="#16161B" />
<rect x="37" y="7" width="1" height="1" fill="#3F4548" />
<rect x="42" y="7" width="1" height="2" fill="#8E8F87" />
<rect x="44" y="7" width="1" height="2" fill="#7D7D73" />
<rect x="45" y="7" width="5" height="1" fill="#3F4548" />
<rect x="56" y="7" width="2" height="3" fill="#8E8F87" />
<rect x="69" y="7" width="1" height="5" fill="#16161B" />
<rect x="75" y="7" width="1" height="1" fill="#7D7D73" />
<rect x="77" y="7" width="2" height="2" fill="#7D7D73" />
<rect x="79" y="7" width="8" height="1" fill="#3F4548" />
<rect x="87" y="7" width="1" height="2" fill="#8E8F87" />
<rect x="10" y="8" width="1" height="1" fill="#3F4548" />
<rect x="11" y="8" width="2" height="1" fill="#8E8F87" />
<rect x="15" y="8" width="2" height="1" fill="#7D7D73" />
<rect x="17" y="8" width="5" height="1" fill="#3F4548" />
<rect x="22" y="8" width="1" height="3" fill="#8E8F87" />
<rect x="37" y="8" width="1" height="5" fill="#16161B" />
<rect x="43" y="8" width="1" height="1" fill="#7D7D73" />
<rect x="45" y="8" width="2" height="2" fill="#7D7D73" />
<rect x="47" y="8" width="8" height="1" fill="#3F4548" />
<rect x="55" y="8" width="1" height="2" fill="#8E8F87" />
<rect x="74" y="8" width="1" height="1" fill="#3F4548" />
<rect x="75" y="8" width="2" height="1" fill="#8E8F87" />
<rect x="79" y="8" width="2" height="1" fill="#7D7D73" />
<rect x="81" y="8" width="5" height="1" fill="#3F4548" />
<rect x="86" y="8" width="1" height="2" fill="#8E8F87" />
<rect x="12" y="9" width="10" height="1" fill="#8E8F87" />
<rect x="24" y="9" width="1" height="1" fill="#8E8F87" />
<rect x="42" y="9" width="1" height="1" fill="#3F4548" />
<rect x="43" y="9" width="2" height="1" fill="#8E8F87" />
<rect x="47" y="9" width="2" height="1" fill="#7D7D73" />
<rect x="49" y="9" width="5" height="1" fill="#3F4548" />
<rect x="54" y="9" width="1" height="2" fill="#8E8F87" />
<rect x="71" y="9" width="1" height="1" fill="#3F4548" />
<rect x="72" y="9" width="1" height="2" fill="#4D3324" />
<rect x="77" y="9" width="1" height="4" fill="#EAEDED" />
<rect x="78" y="9" width="8" height="1" fill="#8E8F87" />
<rect x="7" y="10" width="1" height="1" fill="#3F4548" />
<rect x="8" y="10" width="1" height="2" fill="#4D3324" />
<rect x="13" y="10" width="1" height="4" fill="#EAEDED" />
<rect x="14" y="10" width="8" height="1" fill="#8E8F87" />
<rect x="39" y="10" width="1" height="1" fill="#3F4548" />
<rect x="40" y="10" width="1" height="2" fill="#4D3324" />
<rect x="45" y="10" width="1" height="4" fill="#EAEDED" />
<rect x="46" y="10" width="8" height="1" fill="#8E8F87" />
<rect x="70" y="10" width="1" height="2" fill="#16161B" />
<rect x="73" y="10" width="1" height="2" fill="#4D3324" />
<rect x="78" y="10" width="9" height="2" fill="#EAEDED" />
<rect x="6" y="11" width="1" height="2" fill="#16161B" />
<rect x="9" y="11" width="1" height="2" fill="#4D3324" />
<rect x="14" y="11" width="9" height="2" fill="#EAEDED" />
<rect x="38" y="11" width="1" height="2" fill="#16161B" />
<rect x="41" y="11" width="1" height="2" fill="#4D3324" />
<rect x="46" y="11" width="9" height="2" fill="#EAEDED" />
<rect x="74" y="11" width="1" height="2" fill="#4D3324" />
<rect x="10" y="12" width="1" height="2" fill="#4D3324" />
<rect x="42" y="12" width="1" height="2" fill="#4D3324" />
<rect x="75" y="12" width="1" height="2" fill="#4D3324" />
<rect x="78" y="12" width="8" height="1" fill="#EAEDED" />
<rect x="11" y="13" width="1" height="2" fill="#4D3324" />
<rect x="14" y="13" width="8" height="1" fill="#EAEDED" />
<rect x="43" y="13" width="1" height="2" fill="#4D3324" />
<rect x="46" y="13" width="8" height="1" fill="#EAEDED" />
<rect x="76" y="13" width="1" height="2" fill="#4D3324" />
<rect x="79" y="13" width="6" height="1" fill="#EAEDED" />
<rect x="12" y="14" width="1" height="2" fill="#4D3324" />
<rect x="15" y="14" width="6" height="1" fill="#EAEDED" />
<rect x="44" y="14" width="1" height="2" fill="#4D3324" />
<rect x="46" y="14" width="1" height="1" fill="#734829" />
<rect x="47" y="14" width="6" height="1" fill="#EAEDED" />
<rect x="77" y="14" width="1" height="2" fill="#4D3324" />
<rect x="78" y="14" width="1" height="1" fill="#734829" />
<rect x="79" y="14" width="6" height="1" fill="#603C20" />
<rect x="13" y="15" width="1" height="2" fill="#4D3324" />
<rect x="14" y="15" width="1" height="1" fill="#734829" />
<rect x="15" y="15" width="5" height="1" fill="#603C20" />
<rect x="45" y="15" width="2" height="2" fill="#4D3324" />
<rect x="47" y="15" width="7" height="1" fill="#603C20" />
<rect x="78" y="15" width="1" height="2" fill="#4D3324" />
<rect x="79" y="15" width="5" height="1" fill="#734829" />
<rect x="84" y="15" width="2" height="1" fill="#603C20" />
<rect x="14" y="16" width="1" height="2" fill="#4D3324" />
<rect x="15" y="16" width="5" height="1" fill="#734829" />
<rect x="20" y="16" width="2" height="1" fill="#603C20" />
<rect x="47" y="16" width="1" height="2" fill="#4D3324" />
<rect x="48" y="16" width="4" height="1" fill="#734829" />
<rect x="52" y="16" width="1" height="2" fill="#556E1C" />
<rect x="53" y="16" width="2" height="1" fill="#603C20" />
<rect x="79" y="16" width="1" height="2" fill="#4D3324" />
<rect x="80" y="16" width="4" height="1" fill="#734829" />
<rect x="84" y="16" width="1" height="2" fill="#556E1C" />
<rect x="85" y="16" width="2" height="1" fill="#603C20" />
<rect x="15" y="17" width="1" height="2" fill="#4D3324" />
<rect x="16" y="17" width="4" height="1" fill="#734829" />
<rect x="20" y="17" width="1" height="2" fill="#556E1C" />
<rect x="21" y="17" width="2" height="1" fill="#603C20" />
<rect x="46" y="17" width="1" height="1" fill="#734829" />
<rect x="48" y="17" width="2" height="1" fill="#4D3324" />
<rect x="50" y="17" width="2" height="1" fill="#734829" />
<rect x="53" y="17" width="1" height="1" fill="#556E1C" />
<rect x="54" y="17" width="1" height="2" fill="#603C20" />
<rect x="78" y="17" width="1" height="1" fill="#734829" />
<rect x="80" y="17" width="2" height="1" fill="#4D3324" />
<rect x="82" y="17" width="2" height="1" fill="#734829" />
<rect x="85" y="17" width="1" height="1" fill="#556E1C" />
<rect x="86" y="17" width="1" height="2" fill="#603C20" />
<rect x="14" y="18" width="1" height="1" fill="#734829" />
<rect x="16" y="18" width="2" height="1" fill="#4D3324" />
<rect x="18" y="18" width="2" height="1" fill="#734829" />
<rect x="21" y="18" width="1" height="1" fill="#556E1C" />
<rect x="22" y="18" width="1" height="2" fill="#603C20" />
<rect x="46" y="18" width="1" height="4" fill="#603C20" />
<rect x="47" y="18" width="2" height="2" fill="#734829" />
<rect x="49" y="18" width="2" height="1" fill="#4D3324" />
<rect x="51" y="18" width="1" height="1" fill="#734829" />
<rect x="52" y="18" width="2" height="1" fill="#495B24" />
<rect x="55" y="18" width="1" height="4" fill="#603C20" />
<rect x="78" y="18" width="1" height="4" fill="#603C20" />
<rect x="79" y="18" width="2" height="2" fill="#734829" />
<rect x="81" y="18" width="2" height="1" fill="#4D3324" />
<rect x="83" y="18" width="1" height="1" fill="#734829" />
<rect x="84" y="18" width="2" height="1" fill="#495B24" />
<rect x="87" y="18" width="1" height="4" fill="#603C20" />
<rect x="14" y="19" width="1" height="4" fill="#603C20" />
<rect x="15" y="19" width="2" height="2" fill="#734829" />
<rect x="17" y="19" width="2" height="1" fill="#4D3324" />
<rect x="19" y="19" width="1" height="1" fill="#734829" />
<rect x="20" y="19" width="2" height="1" fill="#495B24" />
<rect x="23" y="19" width="1" height="4" fill="#603C20" />
<rect x="49" y="19" width="1" height="2" fill="#734829" />
<rect x="50" y="19" width="3" height="1" fill="#4D3324" />
<rect x="53" y="19" width="1" height="1" fill="#495B24" />
<rect x="54" y="19" width="1" height="1" fill="#556E1C" />
<rect x="81" y="19" width="1" height="2" fill="#734829" />
<rect x="82" y="19" width="3" height="1" fill="#4D3324" />
<rect x="85" y="19" width="1" height="1" fill="#495B24" />
<rect x="86" y="19" width="1" height="1" fill="#556E1C" />
<rect x="17" y="20" width="1" height="2" fill="#734829" />
<rect x="18" y="20" width="3" height="1" fill="#4D3324" />
<rect x="21" y="20" width="1" height="1" fill="#495B24" />
<rect x="22" y="20" width="1" height="1" fill="#556E1C" />
<rect x="47" y="20" width="1" height="6" fill="#603C20" />
<rect x="48" y="20" width="1" height="1" fill="#734829" />
<rect x="50" y="20" width="2" height="1" fill="#734829" />
<rect x="52" y="20" width="2" height="1" fill="#4D3324" />
<rect x="54" y="20" width="1" height="1" fill="#495B24" />
<rect x="79" y="20" width="1" height="6" fill="#603C20" />
<rect x="80" y="20" width="1" height="1" fill="#734829" />
<rect x="82" y="20" width="2" height="1" fill="#734829" />
<rect x="84" y="20" width="2" height="1" fill="#4D3324" />
<rect x="86" y="20" width="1" height="1" fill="#495B24" />
<rect x="15" y="21" width="1" height="6" fill="#603C20" />
<rect x="16" y="21" width="1" height="1" fill="#734829" />
<rect x="18" y="21" width="2" height="1" fill="#734829" />
<rect x="20" y="21" width="2" height="1" fill="#4D3324" />
<rect x="22" y="21" width="1" height="1" fill="#495B24" />
<rect x="48" y="21" width="3" height="2" fill="#603C20" />
<rect x="51" y="21" width="2" height="1" fill="#734829" />
<rect x="53" y="21" width="2" height="1" fill="#4D3324" />
<rect x="56" y="21" width="1" height="1" fill="#603C20" />
<rect x="80" y="21" width="3" height="2" fill="#603C20" />
<rect x="83" y="21" width="2" height="1" fill="#734829" />
<rect x="85" y="21" width="2" height="1" fill="#4D3324" />
<rect x="88" y="21" width="1" height="1" fill="#603C20" />
<rect x="16" y="22" width="3" height="2" fill="#603C20" />
<rect x="19" y="22" width="2" height="1" fill="#734829" />
<rect x="21" y="22" width="2" height="1" fill="#4D3324" />
<rect x="24" y="22" width="1" height="1" fill="#603C20" />
<rect x="51" y="22" width="2" height="1" fill="#603C20" />
<rect x="53" y="22" width="1" height="1" fill="#734829" />
<rect x="54" y="22" width="3" height="1" fill="#4D3324" />
<rect x="83" y="22" width="2" height="1" fill="#603C20" />
<rect x="85" y="22" width="1" height="1" fill="#734829" />
<rect x="86" y="22" width="3" height="1" fill="#4D3324" />
<rect x="19" y="23" width="2" height="1" fill="#603C20" />
<rect x="21" y="23" width="1" height="1" fill="#734829" />
<rect x="22" y="23" width="3" height="1" fill="#4D3324" />
<rect x="48" y="23" width="2" height="1" fill="#603C20" />
<rect x="50" y="23" width="2" height="2" fill="#373A3E" />
<rect x="52" y="23" width="2" height="1" fill="#603C20" />
<rect x="54" y="23" width="1" height="1" fill="#734829" />
<rect x="55" y="23" width="2" height="1" fill="#603C20" />
<rect x="57" y="23" width="1" height="1" fill="#4D3324" />
<rect x="80" y="23" width="2" height="1" fill="#603C20" />
<rect x="82" y="23" width="2" height="2" fill="#373A3E" />
<rect x="84" y="23" width="2" height="1" fill="#603C20" />
<rect x="86" y="23" width="1" height="1" fill="#734829" />
<rect x="87" y="23" width="2" height="1" fill="#603C20" />
<rect x="89" y="23" width="1" height="1" fill="#4D3324" />
<rect x="16" y="24" width="2" height="1" fill="#603C20" />
<rect x="18" y="24" width="2" height="2" fill="#3F4548" />
<rect x="20" y="24" width="2" height="1" fill="#603C20" />
<rect x="22" y="24" width="1" height="1" fill="#734829" />
<rect x="23" y="24" width="2" height="1" fill="#603C20" />
<rect x="25" y="24" width="1" height="1" fill="#4D3324" />
<rect x="48" y="24" width="1" height="1" fill="#603C20" />
<rect x="49" y="24" width="1" height="4" fill="#373A3E" />
<rect x="52" y="24" width="1" height="1" fill="#373A3E" />
<rect x="53" y="24" width="2" height="3" fill="#3F4548" />
<rect x="55" y="24" width="1" height="1" fill="#603C20" />
<rect x="80" y="24" width="1" height="1" fill="#603C20" />
<rect x="81" y="24" width="1" height="5" fill="#373A3E" />
<rect x="84" y="24" width="1" height="1" fill="#373A3E" />
<rect x="85" y="24" width="2" height="3" fill="#3F4548" />
<rect x="87" y="24" width="1" height="1" fill="#603C20" />
<rect x="16" y="25" width="1" height="2" fill="#603C20" />
<rect x="17" y="25" width="1" height="5" fill="#373A3E" />
<rect x="20" y="25" width="2" height="5" fill="#3F4548" />
<rect x="22" y="25" width="2" height="1" fill="#603C20" />
<rect x="48" y="25" width="1" height="5" fill="#373A3E" />
<rect x="50" y="25" width="3" height="1" fill="#3F4548" />
<rect x="55" y="25" width="1" height="6" fill="#3F4548" />
<rect x="80" y="25" width="1" height="6" fill="#373A3E" />
<rect x="82" y="25" width="3" height="1" fill="#3F4548" />
<rect x="87" y="25" width="1" height="5" fill="#3F4548" />
<rect x="18" y="26" width="1" height="4" fill="#373A3E" />
<rect x="19" y="26" width="1" height="1" fill="#3F4548" />
<rect x="50" y="26" width="1" height="1" fill="#373A3E" />
<rect x="51" y="26" width="2" height="1" fill="#3F4548" />
<rect x="56" y="26" width="1" height="5" fill="#3F4548" />
<rect x="82" y="26" width="1" height="2" fill="#373A3E" />
<rect x="83" y="26" width="2" height="1" fill="#3F4548" />
<rect x="88" y="26" width="1" height="4" fill="#3F4548" />
<rect x="16" y="27" width="1" height="3" fill="#373A3E" />
<rect x="19" y="27" width="1" height="3" fill="#373A3E" />
<rect x="50" y="27" width="2" height="1" fill="#3F4548" />
<rect x="53" y="27" width="1" height="2" fill="#373A3E" />
<rect x="54" y="27" width="1" height="2" fill="#3F4548" />
<rect x="83" y="27" width="1" height="1" fill="#3F4548" />
<rect x="85" y="27" width="1" height="2" fill="#373A3E" />
<rect x="86" y="27" width="1" height="1" fill="#3F4548" />
<rect x="49" y="28" width="2" height="2" fill="#3F4548" />
<rect x="82" y="28" width="1" height="3" fill="#3F4548" />
<rect x="86" y="28" width="1" height="2" fill="#373A3E" />
<rect x="54" y="29" width="1" height="2" fill="#373A3E" />
<rect x="81" y="29" width="1" height="2" fill="#3F4548" />
<rect x="17" y="30" width="5" height="2" fill="#16161B" />
<rect x="48" y="30" width="4" height="1" fill="#16161B" />
<rect x="86" y="30" width="4" height="1" fill="#16161B" />
<rect x="22" y="31" width="1" height="1" fill="#16161B" />
<rect x="54" y="31" width="4" height="1" fill="#16161B" />
<rect x="80" y="31" width="4" height="1" fill="#16161B" />
</svg>